<?xml version="1.0" encoding="UTF-8" standalone="no"?>
<!-- Created with Inkscape (http://www.inkscape.org/) -->

<svg
   version="1.1"
   id="svg1"
   width="2066.6667"
   height="833.33331"
   viewBox="0 0 2066.6667 833.33331"
   xmlns="http://www.w3.org/2000/svg"
   xmlns:svg="http://www.w3.org/2000/svg">
  <defs
     id="defs1" />
  <g
     id="g1">
    <g
       id="group-R5">
      <path
         id="path2"
         d="m 7.6171813,-45.854672 c 0,26.613281 20.5429687,47.4023439 45.7265627,47.4023439 25.183594,0 45.726562,-20.7890629 45.726562,-47.4023439 0,-25.957031 -20.542968,-46.113281 -45.726562,-46.113281 -25.183594,0 -45.7265627,20.15625 -45.7265627,46.113281 z m 5.8124997,0 c 0,-23.121094 17.824219,-40.816406 39.914063,-40.816406 22.089844,0 39.914062,17.695312 39.914062,40.816406 0,23.765625 -17.824218,42.1054689 -39.914062,42.1054689 -22.089844,0 -39.914063,-18.3398439 -39.914063,-42.1054689 z M 112.63183,7.96875e-4 h 30.09375 V -5.1671719 H 130.45605 V -40.042172 h 15.11719 c 6.19921,0 8.0039,1.289063 10.72265,5.941406 l 16.13672,27.2578129 c 3.49219,5.8125 4.52344,6.843749975 12.39844,6.843749975 h 2.46094 V -5.1671719 h -2.46094 c -3.48047,0 -5.02735,-0.3867187 -6.58594,-2.9648437 L 161.19433,-37.065609 c -1.28906,-2.203125 -2.57813,-3.234375 -2.57813,-3.234375 v -0.257813 c 13.30079,-1.546875 21.57422,-11.882812 21.57422,-25.828125 0,-11.625 -5.55468,-18.738281 -13.95703,-21.960937 -4.91015,-1.675782 -9.42187,-2.0625 -15.49219,-2.0625 h -38.10937 v 5.15625 h 12.26953 V -5.1671719 H 112.63183 Z M 130.45605,-45.210141 v -40.042968 h 20.02734 c 4.76953,0 9.29297,0.527343 12.78516,1.816406 6.84375,2.578125 11.10937,8.132812 11.10937,17.308594 0,12.527343 -8.14453,20.917968 -20.02734,20.917968 z M 199.04296,7.96875e-4 h 37.72266 c 6.32812,0 11.7539,-0.386718745 17.17969,-1.933593775 18.46875,-5.296875 29.57812,-20.5429691 29.57812,-43.1484371 0,-21.691407 -10.33594,-37.195313 -27.25781,-42.878907 -6.19922,-1.933593 -11.625,-2.449218 -19.5,-2.449218 h -37.72266 v 5.15625 h 12.26953 V -5.1671719 H 199.04296 Z M 216.86718,-5.1671719 V -85.253109 h 18.98438 c 6.85546,0 12.28125,0.269531 17.95312,2.203125 14.85938,5.039062 23.90625,18.726562 23.90625,37.839843 0,19.898438 -9.82031,33.328125 -25.19531,37.9804691 -5.16797,1.546875 -10.46485,2.0625 -16.66406,2.0625 z M 297.59765,7.96875e-4 H 362.5664 V -17.565609 h -5.42578 V -5.1671719 H 315.42187 V -43.007016 h 36.03515 v -5.167968 h -36.03515 v -37.078125 h 39.14062 v 11.625 h 5.42578 v -16.78125 h -62.39062 v 5.15625 h 12.26953 v 80.0859371 h -12.26953 z m 79.56445,0 h 30.09375 V -5.1671719 H 394.98632 V -40.042172 h 15.11719 c 6.19922,0 8.00391,1.289063 10.72266,5.941406 l 16.13671,27.2578129 c 3.49219,5.8125 4.52344,6.843749975 12.39844,6.843749975 h 2.46094 V -5.1671719 h -2.46094 c -3.48047,0 -5.02734,-0.3867187 -6.58594,-2.9648437 L 425.7246,-37.065609 c -1.28906,-2.203125 -2.57812,-3.234375 -2.57812,-3.234375 v -0.257813 c 13.30078,-1.546875 21.57422,-11.882812 21.57422,-25.828125 0,-11.625 -5.55469,-18.738281 -13.95703,-21.960937 -4.91016,-1.675782 -9.42188,-2.0625 -15.49219,-2.0625 H 377.1621 v 5.15625 h 12.26953 V -5.1671719 H 377.1621 Z M 394.98632,-45.210141 v -40.042968 h 20.02735 c 4.76953,0 9.29296,0.527343 12.78515,1.816406 6.84375,2.578125 11.10938,8.132812 11.10938,17.308594 0,12.527343 -8.14453,20.917968 -20.02735,20.917968 z m 101.6543,-0.644531 c 0,26.613281 20.54297,47.4023439 45.72656,47.4023439 25.1836,0 45.72656,-20.7890629 45.72656,-47.4023439 0,-25.957031 -20.54296,-46.113281 -45.72656,-46.113281 -25.18359,0 -45.72656,20.15625 -45.72656,46.113281 z m 5.8125,0 c 0,-23.121094 17.82422,-40.816406 39.91406,-40.816406 22.08985,0 39.91406,17.695312 39.91406,40.816406 0,23.765625 -17.82421,42.1054689 -39.91406,42.1054689 -22.08984,0 -39.91406,-18.3398439 -39.91406,-42.1054689 z M 601.65527,7.96875e-4 h 30.73828 V -5.1671719 H 619.47949 V -42.362484 h 34.61718 v -5.167969 h -34.61718 v -37.722656 h 35.90625 v 12.28125 h 5.42578 v -17.4375 h -59.15625 v 5.15625 h 12.26953 v 80.0859371 h -12.26953 z m 123.61816,0 h 30.09375 V -5.1671719 H 743.09765 V -85.253109 h 28.92188 v 15.246093 h 5.42578 v -20.402343 h -74.26172 v 20.402343 h 5.42578 v -15.246093 h 28.93359 v 80.0859371 h -12.26953 z m 63.41309,0 h 30.09375 V -5.1671719 H 806.51074 V -42.749203 H 863.8623 V -5.1671719 H 851.59277 V 7.96875e-4 h 30.09375 V -5.1671719 H 869.41699 V -85.253109 h 12.26953 v -5.15625 h -30.09375 v 5.15625 h 12.26953 v 37.335937 h -57.35156 v -37.335937 h 12.26953 v -5.15625 h -30.09375 v 5.15625 h 12.26953 v 80.0859371 h -12.26953 z m 106.69043,0 H 960.3457 V -17.565609 h -5.42578 V -5.1671719 H 913.20117 V -43.007016 h 36.03515 v -5.167968 h -36.03515 v -37.078125 h 39.14062 v 11.625 h 5.42578 v -16.78125 h -62.39062 v 5.15625 h 12.26953 v 80.0859371 h -12.26953 z m 106.30375,0 h 26.6132 V -5.1671719 h -10.9804 l 9.6914,-26.0859371 h 38.3554 l 9.8204,26.0859371 h -10.9805 V 7.96875e-4 h 26.6016 V -5.1671719 h -9.6797 l -31.9102,-85.2421871 h -5.9414 l -31.8984,85.2421871 h -9.6914 z m 27.2578,-36.421874875 15.8906,-42.234375 c 0.9023,-2.332031 1.2891,-4.910156 1.2891,-4.910156 h 0.2578 c 0,0 0.3867,2.578125 1.289,4.910156 l 15.7618,42.234375 z m 70.0019,36.421874875 h 30.0938 V -5.1671719 h -12.2696 V -40.042172 h 15.1172 c 6.1992,0 8.0039,1.289063 10.7227,5.941406 l 16.1367,27.2578129 c 3.4922,5.8125 4.5234,6.843749975 12.3984,6.843749975 h 2.461 V -5.1671719 h -2.461 c -3.4804,0 -5.0273,-0.3867187 -6.5859,-2.9648437 l -17.0508,-28.9335934 c -1.289,-2.203125 -2.5781,-3.234375 -2.5781,-3.234375 v -0.257813 c 13.3008,-1.546875 21.5742,-11.882812 21.5742,-25.828125 0,-11.625 -5.5547,-18.738281 -13.957,-21.960937 -4.9102,-1.675782 -9.4219,-2.0625 -15.4922,-2.0625 h -38.1094 v 5.15625 h 12.2696 v 80.0859371 h -12.2696 z M 1116.7646,-45.210141 v -40.042968 h 20.0274 c 4.7695,0 9.293,0.527343 12.7851,1.816406 6.8438,2.578125 11.1094,8.132812 11.1094,17.308594 0,12.527343 -8.1445,20.917968 -20.0273,20.917968 z m 68.587,45.210937875 h 30.0937 V -5.1671719 h -12.2695 V -40.042172 h 15.1172 c 6.1992,0 8.0039,1.289063 10.7226,5.941406 l 16.1367,27.2578129 c 3.4922,5.8125 4.5235,6.843749975 12.3985,6.843749975 h 2.4609 V -5.1671719 h -2.4609 c -3.4805,0 -5.0274,-0.3867187 -6.586,-2.9648437 l -17.0507,-28.9335934 c -1.2891,-2.203125 -2.5782,-3.234375 -2.5782,-3.234375 v -0.257813 c 13.3008,-1.546875 21.5743,-11.882812 21.5743,-25.828125 0,-11.625 -5.5547,-18.738281 -13.9571,-21.960937 -4.9101,-1.675782 -9.4219,-2.0625 -15.4922,-2.0625 h -38.1093 v 5.15625 h 12.2695 v 80.0859371 h -12.2695 z M 1203.1758,-45.210141 v -40.042968 h 20.0273 c 4.7696,0 9.293,0.527343 12.7852,1.816406 6.8437,2.578125 11.1094,8.132812 11.1094,17.308594 0,12.527343 -8.1446,20.917968 -20.0274,20.917968 z m 68.458,-0.644531 c 0,26.613281 20.543,47.4023439 45.7265,47.4023439 25.1836,0 45.7266,-20.7890629 45.7266,-47.4023439 0,-25.957031 -20.543,-46.113281 -45.7266,-46.113281 -25.1835,0 -45.7265,20.15625 -45.7265,46.113281 z m 5.8125,0 c 0,-23.121094 17.8242,-40.816406 39.914,-40.816406 22.0899,0 39.9141,17.695312 39.9141,40.816406 0,23.765625 -17.8242,42.1054689 -39.9141,42.1054689 -22.0898,0 -39.914,-18.3398439 -39.914,-42.1054689 z m 93.2578,-39.398437 h 9.5625 l 21.832,85.253905875 h 6.9727 L 1431.29,-77.366391 c 0.6446,-2.332031 0.9024,-4.910156 0.9024,-4.910156 h 0.3867 c 0,0 0.2578,2.578125 0.9023,4.910156 l 22.2188,77.367187875 h 6.9726 L 1484.5049,-85.253109 h 9.5508 v -5.15625 h -26.3438 v 5.15625 h 10.8516 l -18.211,73.242187 c -0.5156,2.3203126 -0.914,4.9101564 -0.914,4.9101564 h -0.3867 c 0,0 -0.5157,-2.5898438 -1.1602,-4.9101564 l -22.4766,-78.398437 h -6.0703 l -22.4648,78.398437 c -0.6563,2.3203126 -1.1719,4.9101564 -1.1719,4.9101564 h -0.3867 c 0,0 -0.3867,-2.5898438 -0.9024,-4.9101564 l -18.2109,-73.242187 h 10.8516 v -5.15625 h -26.3555 z m 0,0"
         style="fill:#e41837;fill-opacity:1;fill-rule:nonzero;stroke:none"
         aria-label="ORDER OF THE ARROW"
         transform="matrix(1.3333333,0,0,1.3333333,35.828133,771.788)" />
      <text
         id="text2"
         xml:space="preserve"
         transform="matrix(1.3333333,0,0,1.3333333,628.4988,593.88133)"><tspan
           style="font-variant:normal;font-weight:700;font-size:49.0457px;font-family:Arial;writing-mode:lr-tb;fill:#e41837;fill-opacity:1;fill-rule:nonzero;stroke:none"
           x="0 38.598572 79.903343 123.938 165.24271 201.08742 220.59961 261.90433 305.93903 323.63092 364.93558 411.6763 450.2749 491.57959 511.09183 552.39648"
           y="0"
           id="tspan2">SCOUTING AMERICA</tspan><tspan
           style="font-variant:normal;font-weight:700;font-size:25.3323px;font-family:Arial;writing-mode:lr-tb;fill:#e41837;fill-opacity:1;fill-rule:nonzero;stroke:none"
           x="588.40601"
           y="-18.7418"
           id="tspan3">®</tspan></text>
      <path
         id="path3"
         d="m 8087.37,4025.28 -309.02,-309.02 802.33,-802.4 309.01,308.95 -802.32,802.47 v 0 0"
         style="fill:#e41837;fill-opacity:1;fill-rule:nonzero;stroke:none"
         transform="matrix(0.13333333,0,0,-0.13333333,0,833.33333)" />
      <path
         id="path4"
         d="m 8676.97,3989.57 c -14.3,78.38 -98.68,158.11 -173.59,187.74 -66.49,26.25 -155.68,8.32 -210.35,-36.85 -59.41,-26.11 -99.83,35.74 -137.85,73.71 18.98,16.67 34.52,34.4 35.63,59.54 2.39,21.34 -5.91,41.48 -24.98,51.06 -49.89,18.98 -86.74,-27.31 -119.98,-55.92 13.02,15.46 9.49,42.82 3.49,60.7 -14.21,23.74 -39.2,34.34 -64.17,42.73 -35.67,-9.55 -78.45,-2.31 -102.27,28.52 11.94,30.89 29.76,55.88 61.89,68.99 85.52,21.38 175.95,16.62 257.9,51.05 19.05,21.45 40.4,47.5 54.66,73.67 -28.49,16.77 25.03,32.22 3.61,53.53 -11.88,47.59 48.73,55.89 60.55,96.29 3.6,13.15 -20.17,32.13 1.22,43.96 -5.94,27.3 7.15,57.07 34.49,72.44 24.95,29.86 -4.75,57.14 19.01,87.97 64.15,59.55 -45.18,104.72 -64.21,152.23 -55.8,17.78 -104.53,49.86 -168.72,40.43 -16.64,21.33 -52.38,-7.13 -70.18,20.17 1.2,25.01 -17.78,43.98 -35.62,61.76 -32.1,-5.88 -49.97,26.2 -78.45,30.98 -40.4,42.73 -96.28,62.87 -145.06,95.01 2.37,52.3 -57.06,4.77 -66.58,52.3 -37.99,23.75 -48.73,82.06 -103.36,77.22 -36.86,22.71 -85.61,-11.78 -121.32,23.81 -56.94,0 -102.15,33.34 -154.39,47.66 -48.77,17.73 -118.92,-7.2 -148.6,48.75 -61.88,23.75 -86.83,86.71 -141.43,129.5 -14.29,4.72 -29.78,-1.16 -41.66,15.46 -39.17,-1.17 -73.68,9.49 -110.53,1.18 -45.19,-52.3 -117.69,-5.9 -169.95,6.01 -32.08,15.39 -52.3,47.53 -84.47,62.96 -22.5,20.17 -54.63,16.62 -84.37,22.52 -1.15,10.72 -11.85,7.14 -20.21,8.35 -27.32,20.23 -72.48,8.39 -105.75,5.92 -26.11,16.62 -51.11,36.91 -76.07,57.13 -15.46,22.51 -49.93,9.49 -59.4,38.02 -28.57,26.11 -63.01,51.11 -103.47,58.24 -53.53,20.15 -99.83,-28.52 -156.89,-11.9 -18.95,16.62 -39.21,27.28 -60.6,36.9 -20.24,1.12 -39.27,15.32 -60.68,20.15 -55.82,-20.15 -93.84,32.08 -141.45,-1.17 -10.64,-10.74 -28.44,-7.21 -39.14,-3.66 -9.51,-2.36 -19.07,-11.79 -19.07,-21.34 19.07,-59.44 5.95,-117.68 10.69,-179.5 30.96,-33.19 -9.42,-78.42 17.87,-110.55 39.24,-29.69 7.13,-78.4 28.5,-113.99 36.88,-27.5 41.63,-70.24 61.78,-104.73 2.42,-21.34 22.65,-34.41 19.08,-56.94 42.8,-14.37 8.31,-53.52 15.41,-82.06 19.01,-21.47 21.43,-45.22 30.96,-68.97 27.35,-1.17 17.8,-36.91 29.68,-53.53 23.82,-16.62 21.43,-47.51 47.55,-61.77 -8.36,-46.34 29.67,-79.66 8.36,-127.23 30.83,-30.89 22.59,-74.87 23.73,-114.07 0,-52.28 70.13,-58.33 71.34,-104.59 33.24,-35.65 28.47,-73.76 23.78,-118.91 14.21,-23.69 -5.96,-72.44 28.54,-87.81 14.26,-14.4 -14.33,-31.02 8.31,-41.71 2.33,-21.4 9.46,-38.02 28.46,-49.92 30.96,-47.51 63.03,-86.77 108.18,-124.73 58.27,-34.58 36.88,-110.61 45.17,-164.13 -22.6,-77.23 68.96,-111.72 76.1,-178.3 7.17,-16.53 26.11,-21.33 27.39,-39.18 36.75,-17.8 22.51,-72.52 68.85,-78.41 0,-14.32 13.12,-29.78 0,-42.87 -3.54,-17.73 17.9,-32.05 30.91,-47.51 -2.34,-33.3 35.68,-49.92 49.88,-78.52 5.98,-12.96 -9.43,-35.61 11.95,-45.16 1.21,-58.18 78.43,-78.42 83.18,-135.46 -8.32,-22.54 9.54,-42.82 21.42,-61.8 2.42,-21.45 29.72,-34.41 26.16,-59.41 4.76,-21.47 27.31,-34.43 45.21,-42.87 16.59,-49.81 72.48,-46.26 98.63,-84.36 21.37,-11.9 42.79,2.48 60.61,13.1 40.44,0 61.8,45.15 98.68,55.81 49.89,35.79 112.93,41.7 166.38,71.39 55.86,48.75 70.14,129.59 96.24,184.23 -1.17,32.07 -13.04,60.55 -28.53,90.4 4.77,23.67 -8.28,51.03 -1.16,74.79 15.46,43.97 73.71,19.05 105.81,20.22 9.49,-4.72 20.14,-17.81 28.5,-11.91 22.62,-5.9 3.58,-32.07 7.14,-49.86 7.15,-23.83 17.86,-46.42 39.17,-63.09 17.85,-8.25 52.31,-7.08 65.47,-1.18 -26.17,-30.91 -76.18,-56.94 -67.79,-103.33 1.21,-17.95 14.26,-33.32 29.73,-39.21 40.41,-14.26 67.72,17.88 97.41,40.38 28.52,-40.38 91.57,-65.38 74.92,-122.46 -47.53,-57.05 -65.32,-146.18 -44.01,-217.46 27.42,-70.15 97.51,-152.1 174.76,-177.1 121.29,-23.74 255.56,8.33 347.11,111.72 l -477.86,482.58 412.4,412.43 485.02,-477.81 c 61.8,52.31 92.65,121.29 114.1,190.19 4.69,47.59 9.49,95.01 1.2,141.44 z m -671.57,847.5 c -2.37,21.39 2.43,42.73 11.84,59.41 23.78,21.39 52.31,19.03 82.06,17.8 16.64,-26.19 49.94,-30.95 55.88,-63.03 l 22.54,-60.66 c -42.8,-33.11 -10.66,-96.21 -62.94,-122.26 -45.23,0 -64.22,-73.82 -112.94,-51.17 -15.45,20.17 -45.2,28.52 -34.52,58.24 l -9.49,4.77 c -7.1,59.36 27.34,105.78 47.57,156.9 z m -1936.23,895 c -10.74,-17.81 -32.1,-34.44 -52.33,-47.5 -27.35,8.29 -53.53,22.56 -79.67,36.81 -4.79,21.43 -20.23,41.63 -20.23,60.7 40.47,18.97 48.73,72.5 99.9,68.84 l 34.42,-3.55 c -4.67,-26.17 29.75,-27.34 16.64,-52.33 1.27,-8.25 9.54,-16.57 -3.51,-22.54 11.84,-4.77 -3.6,-27.34 4.78,-40.43 z M 7847.31,3409.45 c 22.58,-13.1 52.31,-33.19 61.74,-59.41 2.44,-18.93 9.6,-40.46 -2.33,-57.07 -15.45,-20.15 -43.95,-22.51 -65.32,-13.02 -33.35,11.85 -60.66,46.39 -66.6,80.83 -7.16,38.07 39.19,65.3 72.51,48.67 z m -7.19,991.35 c 11.93,-23.76 13.16,-53.53 -1.16,-77.23 -26.17,-26.11 -64.16,-35.73 -62.99,-77.36 l -22.59,-17.64 c -8.33,15.37 -5.97,34.35 -26.2,40.28 -9.43,28.61 -17.76,62.96 -46.28,79.73 -11.88,18.98 -17.87,48.69 -10.72,65.31 16.63,7.14 45.18,33.25 53.51,3.53 40.38,23.83 73.64,-23.7 116.43,-16.62 z m -90.3,549.15 c 23.76,-4.78 34.47,-36.85 42.8,-59.36 15.43,-13.15 16.64,-38.09 26.13,-54.77 -1.21,-10.68 -8.32,-20.23 -5.96,-34.44 26.17,-14.32 2.41,-42.88 10.68,-63.01 -18.95,-21.35 -28.47,-59.41 -60.58,-62.97 -11.9,-28.52 -48.69,-46.4 -68.9,-68.9 -22.58,-1.24 -40.43,-28.61 -66.56,-14.35 -15.49,15.47 -21.45,28.53 -24.98,48.75 4.74,52.31 60.58,67.88 67.73,117.6 17.82,10.74 28.5,28.56 29.73,48.76 -32.08,22.64 34.52,60.61 -16.68,71.42 -7.11,33.17 -57.03,26.04 -52.23,66.49 18.96,18.99 32.03,60.6 70.11,48.76 13.09,-24.95 43.94,-15.46 48.71,-43.98 z m -184.28,-780.96 c 8.37,8.32 21.43,19.11 11.94,33.32 10.71,13.09 24.97,22.5 40.37,16.68 -1.13,-15.43 14.27,-9.55 23.76,-11.9 11.95,-11.91 27.41,-29.78 25.02,-46.41 -26.19,-30.87 -47.56,-61.76 -79.66,-84.34 -11.9,2.35 -24.94,3.51 -29.72,17.87 1.19,24.92 20.23,48.75 8.29,74.78 z m -42.81,1088.8 1.28,-3.52 c 20.17,41.67 76.06,23.75 115.3,29.77 23.72,-23.9 67.72,15.43 77.16,-32.21 3.61,-22.51 26.2,-42.79 2.44,-61.78 -19,-4.71 -23.8,-28.52 -41.59,-34.54 -57.08,7.18 -116.49,-80.75 -160.5,-8.25 -7.08,35.61 -15.45,77.23 5.91,110.53 z m -108.11,-942.6 c -1.14,22.54 22.6,36.92 30.91,52.37 42.79,-2.36 47.54,61.76 89.16,48.7 l 42.79,14.25 c 8.29,-22.63 20.17,-36.79 10.71,-62.95 -9.49,-33.25 -53.5,-53.53 -44.01,-91.5 -27.36,-32.12 -68.9,-19.03 -102.22,-16.66 0,33.3 -61.8,21.39 -27.34,55.79 z m -391.01,1170.95 c 80.85,-2.5 142.62,-52.5 213.92,-71.49 22.56,13.1 33.26,-28.52 51.08,-3.52 20.23,-13.1 -1.13,-32.08 16.69,-47.5 5.89,-13.1 -10.72,-29.72 -20.25,-41.63 -59.4,-21.48 -143.81,-60.61 -199.67,-9.57 -41.56,3.55 -57.06,61.84 -98.62,72.54 -5.96,17.83 -17.84,36.81 -15.42,55.94 l 52.27,45.23 z m -91.56,-861.9 c -10.74,-36.81 38.01,-54.65 28.59,-90.33 34.42,-20.23 30.8,-57.05 58.22,-79.58 3.54,-25.01 -13.13,-46.45 -33.34,-57.06 -20.21,-3.55 -40.42,-16.61 -61.79,-9.57 -19.04,23.76 -54.64,7.08 -72.5,43.99 -9.44,30.96 -48.73,51.19 -54.66,85.59 16.63,40.47 -21.43,85.61 17.78,117.75 l 52.32,42.73 c 21.44,-16.62 76.07,-7.07 65.38,-53.52 z m -451.7,1019.86 c 20.22,1.18 -1.15,22.65 19.08,23.7 14.26,-7.07 36.84,-3.55 49.91,2.47 16.62,9.58 34.47,-10.65 51.09,5.92 10.67,-13.05 32.12,-13.05 43.98,-24.9 l 1.19,-6.01 c 23.75,11.92 26.1,-11.91 34.42,-29.78 17.87,-12.96 -9.45,-21.26 -5.96,-34.36 l -41.51,-20.22 -1.25,8.33 c -13.02,1.16 -23.76,-18.98 -36.75,-6.03 -2.42,26.16 -26.18,0 -35.73,14.34 -10.67,-13.09 -23.83,-2.43 -36.82,-3.55 -14.29,23.76 -48.75,39.22 -41.65,70.09 z m -134.26,-170.01 c 23.75,26.17 58.22,1.16 80.79,33.3 28.6,2.41 35.67,-30.83 66.6,-23.75 11.87,-7.08 26.16,-16.62 28.52,-28.53 -11.95,-23.75 15.45,-36.9 8.31,-58.24 -23.77,-40.46 -76.11,-57 -89.16,-100.93 -9.53,-2.5 -20.2,-10.85 -28.46,-2.5 -32.1,10.63 -33.39,45.18 -52.33,66.63 18.94,33.19 -32.09,53.42 -11.89,87.91 l -7.2,-2.31 c -5.9,8.2 1.23,20.1 4.82,28.42 z m -16.7,-487.29 c -26.13,7.13 -51.07,17.78 -77.22,17.78 -19.08,26.2 -55.88,17.87 -70.12,48.84 -17.82,1.11 -19.03,18.98 -21.4,30.88 5.93,22.51 15.48,46.34 -7.16,64.14 -32.09,58.18 42.8,83.29 82.01,58.18 26.17,-18.98 42.82,-49.81 46.35,-77.17 29.75,-41.62 86.86,-20.23 115.33,-60.61 -4.75,-16.62 -13.1,-34.53 -17.88,-51.16 l -49.91,-30.88 z m 190.25,-653.74 c -15.51,-8.29 -29.8,-22.64 -50.03,-14.32 -27.29,17.93 -45.08,42.8 -62.89,67.85 l -13.1,8.19 c 17.79,17.92 5.9,39.4 7.12,59.55 23.79,9.43 30.88,49.86 59.43,42.73 16.69,14.34 26.13,-4.77 42.75,-2.36 14.31,-26.16 39.31,-58.3 17.87,-89.12 57.05,-16.63 -15.44,-41.69 -1.15,-72.52 z m 161.65,354.25 c -33.36,-23.76 -67.8,-8.35 -98.69,10.62 -27.36,13.07 -67.76,-1.05 -78.47,35.71 -8.26,32.09 1.22,58.2 9.56,87.97 h 16.62 c -5.98,17.72 -5.98,41.62 0,61.72 22.59,24.94 47.53,-7.14 71.3,11.98 16.67,-21.43 52.29,-28.55 48.73,-63.04 27.31,-10.66 35.68,-47.57 64.17,-61.83 -13.06,-32.07 17.83,-72.51 -33.22,-83.13 z m 17.81,498.03 c -14.3,0 -28.53,0 -34.46,13.1 17.8,24.85 -19.04,30.88 -10.74,55.83 -46.36,15.37 21.44,40.37 -8.3,62.87 1.18,29.86 34.42,44.04 57.06,52.37 19.01,-16.62 43.95,-3.53 62.97,6.01 21.36,-28.52 47.57,-38.1 78.45,-47.64 22.59,-3.47 14.28,-38.01 40.39,-30.88 20.22,-10.6 4.77,-38.09 1.27,-53.42 -8.37,-22.64 -3.6,-55.94 -34.51,-67.78 -23.77,-4.78 -45.17,11.84 -65.39,-3.53 -28.5,14.27 -61.75,-2.36 -86.74,13.07 z m 268.62,-1507.17 c -28.52,11.85 -57.1,-14.33 -87.93,-4.83 -29.75,34.41 -66.59,57.1 -57.07,107.06 -22.57,12.96 -8.37,48.69 -41.65,51.11 9.55,16.62 -8.32,39.21 -16.6,56.99 -21.42,11.91 1.16,32.08 -14.23,47.6 4.69,26.16 4.69,52.27 28.53,68.89 16.6,14.21 39.17,15.45 60.61,6.02 32.06,-34.55 37.99,-76.16 39.14,-120.15 34.52,-3.52 5.95,-58.11 46.4,-41.49 0,-21.48 17.82,-20.28 32.1,-27.41 24.99,-15.51 53.49,-32.13 49.92,-64.21 -21.42,-23.76 -8.32,-62.96 -39.22,-79.58 z m 156.9,404.05 c -10.71,-27.28 9.52,-64.13 -23.77,-80.75 -29.75,13.07 -84.42,-3.55 -81.99,46.33 9.46,23.81 -29.75,43.91 -5.99,67.66 -11.85,21.48 23.78,21.48 19.04,40.46 22.57,3.66 52.32,31.02 67.77,-1.12 10.73,3.47 17.8,-10.78 22.58,-17.86 -2.38,-7.13 -7.2,-18.99 -1.18,-27.36 13.06,-8.33 13.06,-17.87 3.54,-27.36 z m 122.4,761.89 c 0,14.35 -15.41,20.23 -24.98,29.77 4.8,26.11 -1.16,58.2 -29.66,74.82 -27.28,3.53 -17.8,43.98 -48.73,36.9 -9.51,28.56 14.21,54.72 -9.51,76.07 -1.23,27.36 29.75,24.91 33.24,49.92 4.77,4.76 8.34,10.68 16.65,9.56 3.58,8.3 22.65,13.08 34.49,22.57 23.73,-2.36 13.09,-36.91 39.24,-34.5 17.79,-8.29 9.49,-21.39 3.57,-32.05 8.31,-20.23 30.89,-38.1 23.72,-61.85 39.26,-13.1 3.56,-51.16 36.87,-65.37 7.11,-2.37 0,-9.55 0,-16.71 13.03,-27.27 16.66,-49.91 -10.73,-72.51 5.97,-15.37 2.39,-33.24 -17.76,-39.12 -17.88,10.66 -51.18,-15.45 -46.41,22.5 z m 33.29,-399.33 c -4.76,14.35 4.74,18.98 5.95,34.55 16.62,9.43 29.75,24.86 48.69,22.53 22.65,-13.1 38.11,-18.98 47.6,-45.18 -10.72,-20.28 -36.87,-53.53 -60.63,-53.53 -19.04,7.19 -30.92,23.85 -41.61,41.63 z m 46.39,-260.34 c -9.54,9.54 -15.51,25 -8.34,36.77 19.01,28.61 52.31,7.36 76.06,11.93 9.49,-16.51 41.57,-36.85 23.78,-59.44 16.65,-35.6 -24.94,-53.47 -23.78,-85.6 -21.36,-14.13 -39.25,6.11 -59.47,11.98 -13.03,27.28 -28.46,57 -8.25,84.36 z m 97.41,-263.86 c -22.58,32.14 -27.27,77.34 -49.87,111.77 5.92,22.59 26.17,42.79 49.87,49.87 l 86.8,-13.02 c 11.82,-9.57 30.91,-11.85 34.46,-29.77 -18.98,-16.56 -1.19,-55.83 -29.74,-67.68 -30.86,-14.26 -52.23,-68.99 -91.52,-51.17 z m 537.27,299.6 -386.31,-383.9 c -22.54,-10.8 -43.97,10.6 -52.34,28.53 -1.14,12.95 7.25,23.69 11.96,35.6 l 370.86,370.8 c 11.88,4.85 29.69,10.74 42.79,2.5 14.26,-14.31 26.09,-35.73 13.04,-53.53 z M 8524.82,3911 c -13.13,-22.5 -39.2,-29.58 -64.24,-21.2 -28.49,11.86 -54.67,37.91 -66.51,66.49 -8.35,15.46 -6,36.85 3.58,51.06 11.88,14.27 28.52,16.62 45.18,19.12 29.68,-8.38 60.55,-27.5 76.03,-54.72 8.29,-17.78 14.2,-42.79 5.96,-60.75 v 0"
         style="fill:#e41837;fill-opacity:1;fill-rule:nonzero;stroke:none"
         transform="matrix(0.13333333,0,0,-0.13333333,0,833.33333)" />
      <path
         id="path5"
         d="m 9134.49,3250.11 v -26.44 h -44.68 V 3100.8 h -31.39 v 122.87 h -44.84 v 26.44 h 120.91 v 0"
         style="fill:#e41837;fill-opacity:1;fill-rule:nonzero;stroke:none"
         transform="matrix(0.13333333,0,0,-0.13333333,0,833.33333)" />
      <path
         id="path6"
         d="m 9251.84,3250.11 h 44.84 V 3100.8 h -29.05 v 101.01 c 0,2.88 0,6.97 0.06,12.2 0.1,5.25 0.17,9.3 0.17,12.14 L 9239.5,3100.8 h -30.26 l -28.13,125.35 c 0,-2.84 0.08,-6.89 0.08,-12.14 0.07,-5.23 0.13,-9.32 0.13,-12.2 V 3100.8 h -29.11 v 149.31 h 45.44 l 27.23,-117.4 26.96,117.4 v 0"
         style="fill:#e41837;fill-opacity:1;fill-rule:nonzero;stroke:none"
         transform="matrix(0.13333333,0,0,-0.13333333,0,833.33333)" />
    </g>
  </g>
</svg>
